<?xml version="1.0" standalone="no"?>
<!DOCTYPE svg PUBLIC "-//W3C//DTD SVG 20010904//EN"
 "http://www.w3.org/TR/2001/REC-SVG-20010904/DTD/svg10.dtd">
<svg version="1.0" xmlns="http://www.w3.org/2000/svg"
 width="500.000000pt" height="500.000000pt" viewBox="0 0 500.000000 500.000000"
 preserveAspectRatio="xMidYMid meet">
<metadata>
Created by potrace 1.14, written by Peter Selinger 2001-2017
</metadata>
<g transform="translate(0.000000,500.000000) scale(0.100000,-0.100000)"
fill="#000000" stroke="none">
<path d="M2005 3626 c-138 -34 -219 -121 -262 -281 -14 -52 -16 -141 -18 -635
-1 -316 2 -617 6 -669 9 -114 37 -175 111 -249 89 -89 67 -86 716 -87 511 -1
602 1 697 20 59 11 67 17 119 88 89 122 86 95 86 859 0 723 0 726 -57 811 -35
50 -109 104 -180 129 -56 20 -82 21 -613 23 -418 3 -567 0 -605 -9z"/>
</g>
</svg>
